<?xml version="1.0" encoding="UTF-8" standalone="no"?>
<svg
   xml:space="preserve"
   width="599.925"
   height="599.925"
   version="1.0"
   id="svg2"
   sodipodi:docname="applelogo.svg"
   inkscape:version="1.4 (e7c3feb1, 2024-10-09)"
   xmlns:inkscape="http://www.inkscape.org/namespaces/inkscape"
   xmlns:sodipodi="http://sodipodi.sourceforge.net/DTD/sodipodi-0.dtd"
   xmlns="http://www.w3.org/2000/svg"
   xmlns:svg="http://www.w3.org/2000/svg"><defs
   id="defs2" /><sodipodi:namedview
   id="namedview2"
   pagecolor="#ffffff"
   bordercolor="#000000"
   borderopacity="0.25"
   inkscape:showpageshadow="2"
   inkscape:pageopacity="0.0"
   inkscape:pagecheckerboard="0"
   inkscape:deskcolor="#d1d1d1"
   inkscape:zoom="1.0214403"
   inkscape:cx="277.05976"
   inkscape:cy="278.03877"
   inkscape:window-width="1640"
   inkscape:window-height="867"
   inkscape:window-x="0"
   inkscape:window-y="35"
   inkscape:window-maximized="0"
   inkscape:current-layer="svg2" />
  
  <path
   fill="#FFF"
   d="M396.75 56.5s-36.125.875-69.25 34-27.538 77.75-27.538 77.75 32.791 5.996 67.788-29 29-82.75 29-82.75zm-93 140c-24.417-.167-39.416-21.25-81-21.25-37.417 0-74.926 24.141-90.875 47.5C116 246 102.25 271.5 102.25 323.25s24.917 140.75 86.188 201c10.493 10.318 24.383 18.074 40.229 18.554 28.5.863 46-20.471 82-20.471S357.5 542.804 390 542.804c14.779 0 31.633-6.731 48-24.137 21-22.333 47.059-64.868 60.333-105.667 0 0-66.471-25.671-65.667-99.667.667-61.333 52.75-91.5 52.75-91.5s-30.417-48.5-95.083-48.5c-44.666.334-64.667 23.317-86.583 23.167z"
   id="path2"
   style="fill:none;stroke:#000000;stroke-opacity:1;stroke-width:0.1;stroke-dasharray:none" />
</svg>
